# Blender v2.90.0 OBJ File: 'Пристань.blend'
# www.blender.org
mtllib Ель .mtl
o Ель.011_Цилиндр.015
v 46.086796 4.113584 -17.297455
v 46.086796 18.149620 -17.297455
v 46.288399 4.113584 -17.213947
v 46.288399 18.149620 -17.213947
v 46.371910 4.113584 -17.012341
v 46.371910 18.149620 -17.012341
v 46.288399 4.113584 -16.810738
v 46.288399 18.149620 -16.810738
v 46.086796 4.113584 -16.727230
v 46.086796 18.149620 -16.727230
v 45.885193 4.113584 -16.810738
v 45.885193 18.149620 -16.810738
v 45.801682 4.113584 -17.012341
v 45.801682 18.149620 -17.012341
v 45.885193 4.113584 -17.213947
v 45.885193 18.149620 -17.213947
v 46.086796 6.118732 -17.297455
v 46.086796 8.123880 -17.297455
v 46.086796 10.129027 -17.297455
v 46.086796 12.134175 -17.297455
v 46.086796 14.139323 -17.297455
v 46.086796 15.919384 -17.297455
v 46.288399 15.919384 -17.213947
v 46.288399 14.139322 -17.213947
v 46.288399 12.134175 -17.213947
v 46.288399 10.129027 -17.213947
v 46.288399 8.123879 -17.213947
v 46.288399 6.118732 -17.213947
v 46.371910 15.919384 -17.012341
v 46.371910 14.139322 -17.012341
v 46.371910 12.134175 -17.012341
v 46.371910 10.129027 -17.012341
v 46.371910 8.123879 -17.012341
v 46.371910 6.118732 -17.012341
v 46.288399 15.919384 -16.810738
v 46.288399 14.139322 -16.810738
v 46.288399 12.134175 -16.810738
v 46.288399 10.129027 -16.810738
v 46.288399 8.123879 -16.810738
v 46.288399 6.118732 -16.810738
v 46.086796 15.919384 -16.727230
v 46.086796 14.139322 -16.727230
v 46.086796 12.134175 -16.727230
v 46.086796 10.129027 -16.727230
v 46.086796 8.123879 -16.727230
v 46.086796 6.118732 -16.727230
v 45.885193 15.919384 -16.810738
v 45.885193 14.139322 -16.810738
v 45.885193 12.134175 -16.810738
v 45.885193 10.129027 -16.810738
v 45.885193 8.123879 -16.810738
v 45.885193 6.118732 -16.810738
v 45.801682 15.919384 -17.012341
v 45.801682 14.139322 -17.012341
v 45.801682 12.134175 -17.012341
v 45.801682 10.129027 -17.012341
v 45.801682 8.123879 -17.012341
v 45.801682 6.118732 -17.012341
v 45.885193 15.919384 -17.213947
v 45.885193 14.139322 -17.213947
v 45.885193 12.134175 -17.213947
v 45.885193 10.129027 -17.213947
v 45.885193 8.123879 -17.213947
v 45.885193 6.118732 -17.213947
v 46.086796 14.135762 -18.628752
v 47.229767 14.135762 -18.155313
v 47.703213 14.135762 -17.012341
v 47.229767 14.135762 -15.869366
v 46.086796 14.135762 -15.395931
v 44.943825 14.135762 -15.869366
v 44.470379 14.135762 -17.012341
v 44.943825 14.135762 -18.155313
v 46.086796 10.117628 -20.031490
v 48.221649 10.117628 -19.147194
v 49.105957 10.117628 -17.012337
v 48.221649 10.117628 -14.877479
v 46.086796 10.117628 -13.993190
v 43.951942 10.117628 -14.877479
v 43.067635 10.117628 -17.012337
v 43.951942 10.117628 -19.147194
v 46.086796 6.474812 -20.654413
v 48.662121 6.474811 -19.587666
v 49.728882 6.474811 -17.012335
v 48.662121 6.474811 -14.437003
v 46.086796 6.474811 -13.370266
v 43.511475 6.474811 -14.437003
v 42.444710 6.474811 -17.012335
v 43.511475 6.474811 -19.587666
v 46.086796 16.208046 -18.046387
v 46.817974 16.208046 -17.743521
v 47.120846 16.208046 -17.012341
v 46.817974 16.208046 -16.281162
v 46.086796 16.208046 -15.978297
v 45.355618 16.208046 -16.281162
v 45.052750 16.208046 -17.012341
v 45.355618 16.208046 -17.743521
v 46.086796 18.149620 -17.297455
v 46.288399 18.149620 -17.213947
v 46.371910 18.149620 -17.012341
v 46.288399 18.149620 -16.810738
v 46.086796 18.149620 -16.727230
v 45.885193 18.149620 -16.810738
v 45.801682 18.149620 -17.012341
v 45.885193 18.149620 -17.213947
v 46.086796 18.810577 -17.012341
vt 1.000000 0.928571
vt 1.000000 1.000000
vt 0.875000 1.000000
vt 0.875000 0.928571
vt 0.750000 1.000000
vt 0.750000 0.928571
vt 0.625000 1.000000
vt 0.625000 0.928571
vt 0.500000 1.000000
vt 0.500000 0.928571
vt 0.375000 1.000000
vt 0.375000 0.928571
vt 0.250000 1.000000
vt 0.250000 0.928571
vt 0.125000 1.000000
vt 0.125000 0.928571
vt 0.000000 1.000000
vt 0.000000 0.928571
vt 0.750000 0.490000
vt 0.919706 0.419706
vt 0.990000 0.250000
vt 0.919706 0.080294
vt 0.750000 0.010000
vt 0.580294 0.080294
vt 0.510000 0.250000
vt 0.580294 0.419706
vt 0.125000 0.500000
vt 0.125000 0.571429
vt 0.000000 0.571429
vt 0.000000 0.500000
vt 0.125000 0.642857
vt 0.000000 0.642857
vt 0.125000 0.714286
vt 0.000000 0.714286
vt 0.125000 0.785714
vt 0.000000 0.785714
vt 0.125000 0.857143
vt 0.000000 0.857143
vt 0.250000 0.500000
vt 0.250000 0.571429
vt 0.250000 0.642857
vt 0.250000 0.714286
vt 0.250000 0.785714
vt 0.250000 0.857143
vt 0.375000 0.500000
vt 0.375000 0.571429
vt 0.375000 0.642857
vt 0.375000 0.714286
vt 0.375000 0.785714
vt 0.375000 0.857143
vt 0.500000 0.500000
vt 0.500000 0.571429
vt 0.500000 0.642857
vt 0.500000 0.714286
vt 0.500000 0.785714
vt 0.500000 0.857143
vt 0.625000 0.500000
vt 0.625000 0.571429
vt 0.625000 0.642857
vt 0.625000 0.714286
vt 0.625000 0.785714
vt 0.625000 0.857143
vt 0.750000 0.500000
vt 0.750000 0.571429
vt 0.750000 0.642857
vt 0.750000 0.714286
vt 0.750000 0.785714
vt 0.750000 0.857143
vt 0.875000 0.500000
vt 0.875000 0.571429
vt 0.875000 0.642857
vt 0.875000 0.714286
vt 0.875000 0.785714
vt 0.875000 0.857143
vt 1.000000 0.500000
vt 1.000000 0.571429
vt 1.000000 0.642857
vt 1.000000 0.714286
vt 1.000000 0.785714
vt 1.000000 0.857143
vt 0.125000 0.928571
vt 0.250000 0.928571
vt 0.500000 0.928571
vt 0.625000 0.928571
vt 0.000000 0.928571
vt 0.875000 0.928571
vt 1.000000 0.928571
vt 0.375000 0.928571
vt 0.750000 0.928571
vt 0.375000 0.857143
vt 0.500000 0.857143
vt 0.750000 0.857143
vt 0.875000 0.857143
vt 0.250000 0.857143
vt 0.625000 0.857143
vt 0.125000 0.857143
vt 0.000000 0.857143
vt 1.000000 0.857143
vt 0.875000 0.714286
vt 1.000000 0.714286
vt 0.375000 0.714286
vt 0.500000 0.714286
vt 0.750000 0.714286
vt 0.250000 0.714286
vt 0.625000 0.714286
vt 0.125000 0.714286
vt 0.000000 0.714286
vt 0.000000 0.000000
vt 0.000000 0.000000
vt 0.000000 0.000000
vt 0.000000 0.000000
vt 0.000000 0.000000
vt 0.000000 0.000000
vt 0.000000 0.000000
vt 0.000000 0.000000
vt 0.000000 0.000000
vt 0.250000 1.000000
vt 0.375000 1.000000
vt 0.500000 1.000000
vt 0.625000 1.000000
vt 0.125000 1.000000
vt 0.750000 1.000000
vt 0.875000 1.000000
vt 0.000000 1.000000
vt 1.000000 1.000000
vt 0.500000 1.000000
vn 0.3827 0.0000 -0.9239
vn 0.9239 0.0000 -0.3827
vn 0.9239 0.0000 0.3827
vn 0.3827 0.0000 0.9239
vn -0.3827 0.0000 0.9239
vn -0.9239 0.0000 0.3827
vn -0.9239 0.0000 -0.3827
vn -0.3827 0.0000 -0.9239
vn 0.0000 -1.0000 -0.0000
vn -0.7606 0.5677 -0.3150
vn 0.3150 0.5677 0.7606
vn -0.3150 0.5677 -0.7606
vn 0.3150 0.5677 -0.7606
vn -0.3150 0.5677 0.7606
vn 0.7606 0.5677 -0.3150
vn -0.7606 0.5677 0.3150
vn 0.7606 0.5677 0.3150
vn -0.3241 0.5319 0.7824
vn 0.7824 0.5319 -0.3241
vn -0.7824 0.5319 0.3241
vn 0.7824 0.5319 0.3241
vn -0.7824 0.5319 -0.3241
vn 0.3241 0.5319 0.7824
vn -0.3241 0.5319 -0.7824
vn 0.3241 0.5319 -0.7824
vn 0.2918 0.6471 -0.7044
vn -0.2918 0.6471 0.7044
vn 0.7044 0.6471 -0.2918
vn -0.7044 0.6471 0.2918
vn 0.7044 0.6471 0.2918
vn -0.7044 0.6471 -0.2918
vn 0.2918 0.6471 0.7044
vn -0.2918 0.6471 -0.7044
vn -0.3605 0.3357 0.8703
vn -0.8703 0.3357 0.3605
vn -0.8703 0.3357 -0.3605
vn -0.3605 0.3357 -0.8703
vn 0.3605 0.3357 -0.8703
vn 0.8703 0.3357 -0.3605
vn 0.8703 0.3357 0.3605
vn 0.3605 0.3357 0.8703
vn 0.0000 0.0000 1.0000
vn 0.0000 0.3961 -0.9182
vn -0.9182 0.3961 0.0000
vn 0.9182 0.3961 0.0000
vn 0.0000 0.3961 0.9182
usemtl None
s off
f 22/1/1 2/2/1 4/3/1 23/4/1
f 23/4/2 4/3/2 6/5/2 29/6/2
f 29/6/3 6/5/3 8/7/3 35/8/3
f 35/8/4 8/7/4 10/9/4 41/10/4
f 41/10/5 10/9/5 12/11/5 47/12/5
f 47/12/6 12/11/6 14/13/6 53/14/6
f 53/14/7 14/13/7 16/15/7 59/16/7
f 59/16/8 16/15/8 2/17/8 22/18/8
f 1/19/9 3/20/9 5/21/9 7/22/9 9/23/9 11/24/9 13/25/9 15/26/9
f 15/27/8 64/28/8 17/29/8 1/30/8
f 64/28/8 63/31/8 18/32/8 17/29/8
f 63/31/8 62/33/8 19/34/8 18/32/8
f 62/33/8 61/35/8 20/36/8 19/34/8
f 61/35/8 60/37/8 21/38/8 20/36/8
f 60/37/8 59/16/8 22/18/8 21/38/8
f 13/39/7 58/40/7 64/28/7 15/27/7
f 58/40/7 57/41/7 63/31/7 64/28/7
f 57/41/7 56/42/7 62/33/7 63/31/7
f 56/42/7 55/43/7 61/35/7 62/33/7
f 55/43/7 54/44/7 60/37/7 61/35/7
f 54/44/7 53/14/7 59/16/7 60/37/7
f 11/45/6 52/46/6 58/40/6 13/39/6
f 52/46/6 51/47/6 57/41/6 58/40/6
f 51/47/6 50/48/6 56/42/6 57/41/6
f 50/48/6 49/49/6 55/43/6 56/42/6
f 49/49/6 48/50/6 54/44/6 55/43/6
f 48/50/6 47/12/6 53/14/6 54/44/6
f 9/51/5 46/52/5 52/46/5 11/45/5
f 46/52/5 45/53/5 51/47/5 52/46/5
f 45/53/5 44/54/5 50/48/5 51/47/5
f 44/54/5 43/55/5 49/49/5 50/48/5
f 43/55/5 42/56/5 48/50/5 49/49/5
f 42/56/5 41/10/5 47/12/5 48/50/5
f 7/57/4 40/58/4 46/52/4 9/51/4
f 40/58/4 39/59/4 45/53/4 46/52/4
f 39/59/4 38/60/4 44/54/4 45/53/4
f 38/60/4 37/61/4 43/55/4 44/54/4
f 37/61/4 36/62/4 42/56/4 43/55/4
f 36/62/4 35/8/4 41/10/4 42/56/4
f 5/63/3 34/64/3 40/58/3 7/57/3
f 34/64/3 33/65/3 39/59/3 40/58/3
f 33/65/3 32/66/3 38/60/3 39/59/3
f 32/66/3 31/67/3 37/61/3 38/60/3
f 31/67/3 30/68/3 36/62/3 37/61/3
f 30/68/3 29/6/3 35/8/3 36/62/3
f 3/69/2 28/70/2 34/64/2 5/63/2
f 28/70/2 27/71/2 33/65/2 34/64/2
f 27/71/2 26/72/2 32/66/2 33/65/2
f 26/72/2 25/73/2 31/67/2 32/66/2
f 25/73/2 24/74/2 30/68/2 31/67/2
f 24/74/2 23/4/2 29/6/2 30/68/2
f 1/75/1 17/76/1 28/70/1 3/69/1
f 17/76/1 18/77/1 27/71/1 28/70/1
f 18/77/1 19/78/1 26/72/1 27/71/1
f 19/78/1 20/79/1 25/73/1 26/72/1
f 20/79/1 21/80/1 24/74/1 25/73/1
f 21/80/1 22/1/1 23/4/1 24/74/1
f 59/16/10 72/81/10 71/82/10 53/14/10
f 41/10/11 69/83/11 68/84/11 35/8/11
f 22/18/12 65/85/12 72/81/12 59/16/12
f 23/4/13 66/86/13 65/87/13 22/1/13
f 47/12/14 70/88/14 69/83/14 41/10/14
f 29/6/15 67/89/15 66/86/15 23/4/15
f 53/14/16 71/82/16 70/88/16 47/12/16
f 35/8/17 68/84/17 67/89/17 29/6/17
f 42/56/18 48/50/18 78/90/18 77/91/18
f 24/74/19 30/68/19 75/92/19 74/93/19
f 48/50/20 54/44/20 79/94/20 78/90/20
f 30/68/21 36/62/21 76/95/21 75/92/21
f 54/44/22 60/37/22 80/96/22 79/94/22
f 36/62/23 42/56/23 77/91/23 76/95/23
f 60/37/24 21/38/24 73/97/24 80/96/24
f 21/80/25 24/74/25 74/93/25 73/98/25
f 19/78/26 26/72/26 82/99/26 81/100/26
f 44/54/27 50/48/27 86/101/27 85/102/27
f 26/72/28 32/66/28 83/103/28 82/99/28
f 50/48/29 56/42/29 87/104/29 86/101/29
f 32/66/30 38/60/30 84/105/30 83/103/30
f 56/42/31 62/33/31 88/106/31 87/104/31
f 38/60/32 44/54/32 85/102/32 84/105/32
f 62/33/33 19/34/33 81/107/33 88/106/33
f 80/96/9 73/98/9 74/93/9 75/92/9 76/95/9 77/91/9 78/90/9 79/94/9
f 88/106/9 81/100/9 82/99/9 83/103/9 84/105/9 85/102/9 86/101/9 87/104/9
f 72/81/9 65/87/9 66/86/9 67/89/9 68/84/9 69/83/9 70/88/9 71/82/9
f 93/108/34 10/9/34 12/11/34 94/109/34
f 95/110/35 94/109/35 12/11/35 14/13/35
f 16/15/36 96/111/36 95/110/36 14/13/36
f 2/17/37 89/112/37 96/111/37 16/15/37
f 89/112/38 2/17/38 4/3/38 90/113/38
f 6/114/39 91/115/39 90/113/39 4/3/39
f 91/115/40 6/114/40 8/7/40 92/116/40
f 10/9/41 93/108/41 92/116/41 8/7/41
f 94/109/9 95/110/9 96/111/9 89/112/9 90/113/9 91/115/9 92/116/9 93/108/9
f 12/11/42 14/13/42 103/117/42 102/118/42
f 8/7/42 10/9/42 101/119/42 100/120/42
f 14/13/42 16/15/42 104/121/42 103/117/42
f 4/3/42 6/5/42 99/122/42 98/123/42
f 10/9/42 12/11/42 102/118/42 101/119/42
f 16/15/42 2/17/42 97/124/42 104/121/42
f 2/2/42 4/3/42 98/123/42 97/125/42
f 6/5/42 8/7/42 100/120/42 99/122/42
f 98/123/43 97/125/43 104/121/43 105/126/43
f 105/126/44 104/121/44 103/117/44 102/118/44
f 99/122/45 98/123/45 105/126/45 100/120/45
f 100/120/46 105/126/46 102/118/46 101/119/46
