# Blender v2.91.0 OBJ File: ''
# www.blender.org
mtllib Derevo_otdelno.mtl
o Ель_Цилиндр.007
v 0.000005 11.806242 -0.285108
v 0.000005 14.036476 -0.285108
v 0.201604 14.036476 -0.201600
v 0.201604 11.806242 -0.201600
v 0.285116 14.036476 0.000006
v 0.285116 11.806242 0.000005
v 0.201604 14.036476 0.201610
v 0.201604 11.806242 0.201609
v 0.000005 14.036476 0.285116
v 0.000005 11.806242 0.285116
v -0.201602 14.036476 0.201610
v -0.201602 11.806242 0.201609
v -0.285113 14.036476 0.000006
v -0.285113 11.806242 0.000005
v -0.201602 14.036476 -0.201600
v -0.201602 11.806242 -0.201600
v 0.000005 0.000442 -0.285110
v 0.201604 0.000442 -0.201602
v 0.285116 0.000442 0.000003
v 0.201604 0.000442 0.201607
v 0.000005 0.000442 0.285114
v -0.201602 0.000442 0.201607
v -0.285113 0.000442 0.000003
v -0.201602 0.000442 -0.201602
v -0.201602 2.005590 -0.201602
v 0.000005 2.005590 -0.285110
v -0.201602 4.010738 -0.201602
v 0.000005 4.010738 -0.285109
v -0.201602 6.015884 -0.201601
v 0.000005 6.015884 -0.285109
v -0.201602 8.021034 -0.201601
v 0.000005 8.021034 -0.285109
v -0.201602 10.026180 -0.201601
v 0.000005 10.026180 -0.285108
v -0.285113 2.005590 0.000004
v -0.285113 4.010738 0.000004
v -0.285113 6.015884 0.000004
v -0.285113 8.021034 0.000005
v -0.285113 10.026180 0.000005
v -0.201602 2.005590 0.201608
v -0.201602 4.010738 0.201608
v -0.201602 6.015884 0.201608
v -0.201602 8.021034 0.201609
v -0.201602 10.026180 0.201609
v 0.000005 2.005590 0.285114
v 0.000005 4.010738 0.285115
v 0.000005 6.015884 0.285115
v 0.000005 8.021034 0.285115
v 0.000005 10.026180 0.285116
v 0.201604 2.005590 0.201608
v 0.201604 4.010738 0.201608
v 0.201604 6.015884 0.201608
v 0.201604 8.021034 0.201609
v 0.201604 10.026180 0.201609
v 0.285116 2.005590 0.000004
v 0.285116 4.010738 0.000004
v 0.285116 6.015884 0.000004
v 0.285116 8.021034 0.000005
v 0.285116 10.026180 0.000005
v 0.201604 2.005590 -0.201602
v 0.201604 4.010738 -0.201602
v 0.201604 6.015884 -0.201601
v 0.201604 8.021034 -0.201601
v 0.201604 10.026180 -0.201601
v -1.616419 10.022619 0.000007
v -1.142970 10.022619 -1.142967
v 1.142972 10.022619 1.142981
v 0.000005 10.022619 1.616415
v 0.000005 10.022619 -1.616405
v 1.142972 10.022619 -1.142967
v -1.142970 10.022619 1.142981
v 1.616415 10.022619 0.000007
v -2.134852 6.004485 2.134867
v 0.000005 6.004485 3.019156
v 3.019163 6.004485 0.000009
v 2.134855 6.004486 -2.134848
v -3.019160 6.004485 0.000009
v 2.134855 6.004485 2.134867
v -2.134852 6.004486 -2.134848
v 0.000005 6.004487 -3.019144
v 2.575323 2.361670 -2.575320
v 0.000005 2.361670 -3.642068
v -2.575320 2.361669 2.575342
v 0.000005 2.361669 3.642080
v 3.642087 2.361669 0.000011
v -3.642085 2.361669 0.000011
v 2.575323 2.361669 2.575342
v -2.575320 2.361670 -2.575320
v 0.000005 12.094904 1.034050
v -0.731181 12.094904 0.731186
v -1.034045 12.094904 0.000005
v -0.731181 12.094904 -0.731174
v 0.000005 12.094904 -1.034040
v 0.731176 12.094904 -0.731174
v 1.034048 12.094904 0.000005
v 0.731176 12.094904 0.731186
v -0.285113 14.036476 0.000006
v -0.201602 14.036476 0.201610
v 0.000005 14.036476 0.285116
v 0.201604 14.036476 0.201610
v -0.201602 14.036476 -0.201600
v 0.285116 14.036476 0.000006
v 0.201604 14.036476 -0.201600
v 0.000005 14.036476 -0.285108
v 0.000005 14.697433 0.000006
vt 1.000000 0.928571
vt 1.000000 1.000000
vt 0.875000 1.000000
vt 0.875000 0.928571
vt 0.750000 1.000000
vt 0.750000 0.928571
vt 0.625000 1.000000
vt 0.625000 0.928571
vt 0.500000 1.000000
vt 0.500000 0.928571
vt 0.375000 1.000000
vt 0.375000 0.928571
vt 0.250000 1.000000
vt 0.250000 0.928571
vt 0.125000 1.000000
vt 0.125000 0.928571
vt 0.000000 1.000000
vt 0.000000 0.928571
vt 0.750000 0.490000
vt 0.919706 0.419706
vt 0.990000 0.250000
vt 0.919706 0.080294
vt 0.750000 0.010000
vt 0.580294 0.080294
vt 0.510000 0.250000
vt 0.580294 0.419706
vt 0.125000 0.500000
vt 0.125000 0.571429
vt 0.000000 0.571429
vt 0.000000 0.500000
vt 0.125000 0.642857
vt 0.000000 0.642857
vt 0.125000 0.714286
vt 0.000000 0.714286
vt 0.125000 0.785714
vt 0.000000 0.785714
vt 0.125000 0.857143
vt 0.000000 0.857143
vt 0.250000 0.500000
vt 0.250000 0.571429
vt 0.250000 0.642857
vt 0.250000 0.714286
vt 0.250000 0.785714
vt 0.250000 0.857143
vt 0.375000 0.500000
vt 0.375000 0.571429
vt 0.375000 0.642857
vt 0.375000 0.714286
vt 0.375000 0.785714
vt 0.375000 0.857143
vt 0.500000 0.500000
vt 0.500000 0.571429
vt 0.500000 0.642857
vt 0.500000 0.714286
vt 0.500000 0.785714
vt 0.500000 0.857143
vt 0.625000 0.500000
vt 0.625000 0.571429
vt 0.625000 0.642857
vt 0.625000 0.714286
vt 0.625000 0.785714
vt 0.625000 0.857143
vt 0.750000 0.500000
vt 0.750000 0.571429
vt 0.750000 0.642857
vt 0.750000 0.714286
vt 0.750000 0.785714
vt 0.750000 0.857143
vt 0.875000 0.500000
vt 0.875000 0.571429
vt 0.875000 0.642857
vt 0.875000 0.714286
vt 0.875000 0.785714
vt 0.875000 0.857143
vt 1.000000 0.500000
vt 1.000000 0.571429
vt 1.000000 0.642857
vt 1.000000 0.714286
vt 1.000000 0.785714
vt 1.000000 0.857143
vt 0.125000 0.928571
vt 0.250000 0.928571
vt 0.500000 0.928571
vt 0.625000 0.928571
vt 0.000000 0.928571
vt 0.875000 0.928571
vt 1.000000 0.928571
vt 0.375000 0.928571
vt 0.750000 0.928571
vt 0.375000 0.857143
vt 0.500000 0.857143
vt 0.750000 0.857143
vt 0.875000 0.857143
vt 0.250000 0.857143
vt 0.625000 0.857143
vt 0.125000 0.857143
vt 0.000000 0.857143
vt 1.000000 0.857143
vt 0.875000 0.714286
vt 1.000000 0.714286
vt 0.375000 0.714286
vt 0.500000 0.714286
vt 0.750000 0.714286
vt 0.250000 0.714286
vt 0.625000 0.714286
vt 0.125000 0.714286
vt 0.000000 0.714286
vt 0.000000 0.000000
vt 0.000000 0.000000
vt 0.000000 0.000000
vt 0.000000 0.000000
vt 0.000000 0.000000
vt 0.000000 0.000000
vt 0.000000 0.000000
vt 0.000000 0.000000
vt 0.000000 0.000000
vt 0.375000 1.000000
vt 0.250000 1.000000
vt 0.625000 1.000000
vt 0.500000 1.000000
vt 0.125000 1.000000
vt 0.875000 1.000000
vt 0.750000 1.000000
vt 0.000000 1.000000
vt 1.000000 1.000000
vt 0.500000 1.000000
vn 0.3827 0.0000 -0.9239
vn 0.9239 0.0000 -0.3827
vn 0.9239 -0.0000 0.3827
vn 0.3827 -0.0000 0.9239
vn -0.3827 -0.0000 0.9239
vn -0.9239 -0.0000 0.3827
vn -0.9239 0.0000 -0.3827
vn -0.3827 0.0000 -0.9239
vn 0.0000 -1.0000 -0.0000
vn -0.7606 0.5677 -0.3150
vn 0.3150 0.5677 0.7606
vn -0.3150 0.5677 -0.7606
vn 0.3150 0.5677 -0.7606
vn -0.3150 0.5677 0.7606
vn 0.7606 0.5677 -0.3150
vn -0.7606 0.5677 0.3150
vn 0.7606 0.5677 0.3150
vn -0.3241 0.5319 0.7824
vn 0.7824 0.5319 -0.3241
vn -0.7824 0.5319 0.3241
vn 0.7824 0.5319 0.3241
vn -0.7824 0.5319 -0.3241
vn 0.3241 0.5319 0.7824
vn -0.3241 0.5319 -0.7824
vn 0.3241 0.5319 -0.7824
vn 0.2918 0.6471 -0.7044
vn -0.2918 0.6471 0.7044
vn 0.7044 0.6471 -0.2918
vn -0.7044 0.6471 0.2918
vn 0.7044 0.6471 0.2918
vn -0.7044 0.6471 -0.2918
vn 0.2918 0.6471 0.7044
vn -0.2918 0.6471 -0.7044
vn -0.3605 0.3357 0.8703
vn -0.8703 0.3357 0.3605
vn -0.8703 0.3357 -0.3605
vn -0.3605 0.3357 -0.8703
vn 0.3605 0.3357 -0.8703
vn 0.8703 0.3357 -0.3605
vn 0.8703 0.3357 0.3605
vn 0.3605 0.3357 0.8703
vn 0.0000 0.0000 1.0000
vn 0.0000 0.3961 -0.9182
vn -0.9182 0.3961 0.0000
vn 0.9182 0.3961 0.0000
vn 0.0000 0.3961 0.9182
usemtl None
s 1
f 1/1/1 2/2/1 3/3/1 4/4/1
f 4/4/2 3/3/2 5/5/2 6/6/2
f 6/6/3 5/5/3 7/7/3 8/8/3
f 8/8/4 7/7/4 9/9/4 10/10/4
f 10/10/5 9/9/5 11/11/5 12/12/5
f 12/12/6 11/11/6 13/13/6 14/14/6
f 14/14/7 13/13/7 15/15/7 16/16/7
f 16/16/8 15/15/8 2/17/8 1/18/8
f 17/19/9 18/20/9 19/21/9 20/22/9 21/23/9 22/24/9 23/25/9 24/26/9
f 24/27/8 25/28/8 26/29/8 17/30/8
f 25/28/8 27/31/8 28/32/8 26/29/8
f 27/31/8 29/33/8 30/34/8 28/32/8
f 29/33/8 31/35/8 32/36/8 30/34/8
f 31/35/8 33/37/8 34/38/8 32/36/8
f 33/37/8 16/16/8 1/18/8 34/38/8
f 23/39/7 35/40/7 25/28/7 24/27/7
f 35/40/7 36/41/7 27/31/7 25/28/7
f 36/41/7 37/42/7 29/33/7 27/31/7
f 37/42/7 38/43/7 31/35/7 29/33/7
f 38/43/7 39/44/7 33/37/7 31/35/7
f 39/44/7 14/14/7 16/16/7 33/37/7
f 22/45/6 40/46/6 35/40/6 23/39/6
f 40/46/6 41/47/6 36/41/6 35/40/6
f 41/47/6 42/48/6 37/42/6 36/41/6
f 42/48/6 43/49/6 38/43/6 37/42/6
f 43/49/6 44/50/6 39/44/6 38/43/6
f 44/50/6 12/12/6 14/14/6 39/44/6
f 21/51/5 45/52/5 40/46/5 22/45/5
f 45/52/5 46/53/5 41/47/5 40/46/5
f 46/53/5 47/54/5 42/48/5 41/47/5
f 47/54/5 48/55/5 43/49/5 42/48/5
f 48/55/5 49/56/5 44/50/5 43/49/5
f 49/56/5 10/10/5 12/12/5 44/50/5
f 20/57/4 50/58/4 45/52/4 21/51/4
f 50/58/4 51/59/4 46/53/4 45/52/4
f 51/59/4 52/60/4 47/54/4 46/53/4
f 52/60/4 53/61/4 48/55/4 47/54/4
f 53/61/4 54/62/4 49/56/4 48/55/4
f 54/62/4 8/8/4 10/10/4 49/56/4
f 19/63/3 55/64/3 50/58/3 20/57/3
f 55/64/3 56/65/3 51/59/3 50/58/3
f 56/65/3 57/66/3 52/60/3 51/59/3
f 57/66/3 58/67/3 53/61/3 52/60/3
f 58/67/3 59/68/3 54/62/3 53/61/3
f 59/68/3 6/6/3 8/8/3 54/62/3
f 18/69/2 60/70/2 55/64/2 19/63/2
f 60/70/2 61/71/2 56/65/2 55/64/2
f 61/71/2 62/72/2 57/66/2 56/65/2
f 62/72/2 63/73/2 58/67/2 57/66/2
f 63/73/2 64/74/2 59/68/2 58/67/2
f 64/74/2 4/4/2 6/6/2 59/68/2
f 17/75/1 26/76/1 60/70/1 18/69/1
f 26/76/1 28/77/1 61/71/1 60/70/1
f 28/77/1 30/78/1 62/72/1 61/71/1
f 30/78/1 32/79/1 63/73/1 62/72/1
f 32/79/1 34/80/1 64/74/1 63/73/1
f 34/80/1 1/1/1 4/4/1 64/74/1
f 16/16/10 66/81/10 65/82/10 14/14/10
f 10/10/11 68/83/11 67/84/11 8/8/11
f 1/18/12 69/85/12 66/81/12 16/16/12
f 4/4/13 70/86/13 69/87/13 1/1/13
f 12/12/14 71/88/14 68/83/14 10/10/14
f 6/6/15 72/89/15 70/86/15 4/4/15
f 14/14/16 65/82/16 71/88/16 12/12/16
f 8/8/17 67/84/17 72/89/17 6/6/17
f 49/56/18 44/50/18 73/90/18 74/91/18
f 64/74/19 59/68/19 75/92/19 76/93/19
f 44/50/20 39/44/20 77/94/20 73/90/20
f 59/68/21 54/62/21 78/95/21 75/92/21
f 39/44/22 33/37/22 79/96/22 77/94/22
f 54/62/23 49/56/23 74/91/23 78/95/23
f 33/37/24 34/38/24 80/97/24 79/96/24
f 34/80/25 64/74/25 76/93/25 80/98/25
f 30/78/26 62/72/26 81/99/26 82/100/26
f 47/54/27 42/48/27 83/101/27 84/102/27
f 62/72/28 57/66/28 85/103/28 81/99/28
f 42/48/29 37/42/29 86/104/29 83/101/29
f 57/66/30 52/60/30 87/105/30 85/103/30
f 37/42/31 29/33/31 88/106/31 86/104/31
f 52/60/32 47/54/32 84/102/32 87/105/32
f 29/33/33 30/34/33 82/107/33 88/106/33
f 79/96/9 80/98/9 76/93/9 75/92/9 78/95/9 74/91/9 73/90/9 77/94/9
f 88/106/9 82/100/9 81/99/9 85/103/9 87/105/9 84/102/9 83/101/9 86/104/9
f 66/81/9 69/87/9 70/86/9 72/89/9 67/84/9 68/83/9 71/88/9 65/82/9
f 89/108/34 9/9/34 11/11/34 90/109/34
f 91/110/35 90/109/35 11/11/35 13/13/35
f 15/15/36 92/111/36 91/110/36 13/13/36
f 2/17/37 93/112/37 92/111/37 15/15/37
f 93/112/38 2/17/38 3/3/38 94/113/38
f 5/114/39 95/115/39 94/113/39 3/3/39
f 95/115/40 5/114/40 7/7/40 96/116/40
f 9/9/41 89/108/41 96/116/41 7/7/41
f 90/109/9 91/110/9 92/111/9 93/112/9 94/113/9 95/115/9 96/116/9 89/108/9
f 11/11/42 98/117/42 97/118/42 13/13/42
f 7/7/42 100/119/42 99/120/42 9/9/42
f 13/13/42 97/118/42 101/121/42 15/15/42
f 3/3/42 103/122/42 102/123/42 5/5/42
f 9/9/42 99/120/42 98/117/42 11/11/42
f 15/15/42 101/121/42 104/124/42 2/17/42
f 2/2/42 104/125/42 103/122/42 3/3/42
f 5/5/42 102/123/42 100/119/42 7/7/42
f 103/122/43 104/125/43 101/121/43 105/126/43
f 105/126/44 101/121/44 97/118/44 98/117/44
f 102/123/45 103/122/45 105/126/45 100/119/45
f 100/119/46 105/126/46 98/117/46 99/120/46
